<svg width="33" height="29" viewBox="0 0 33 29" fill="none" xmlns="http://www.w3.org/2000/svg">
<path d="M15.2648 0.309976C17.0138 -0.0347004 19.305 -0.191856 21.3744 0.376393C23.557 0.97575 25.6065 2.44589 26.1877 5.24875C26.3892 6.22012 26.1811 7.1365 25.9146 7.84045C25.6425 8.55937 25.2494 9.2144 24.884 9.74006C24.6758 10.0396 24.4649 10.3137 24.2697 10.5526L31 25.5275L27.2435 27.0893L19.4559 9.76173L20.4273 8.81789C20.427 8.81822 20.4267 8.81851 20.4264 8.81876L20.426 8.81922C20.4276 8.81763 20.4316 8.8137 20.4377 8.80752C20.4501 8.79514 20.4712 8.77382 20.4997 8.74438C20.5568 8.68531 20.6426 8.59453 20.7465 8.47828C20.9569 8.24271 21.2277 7.91801 21.4819 7.55235C21.7414 7.17898 21.9481 6.81354 22.0692 6.49385C22.1281 6.33815 22.1574 6.21742 22.1693 6.13081C22.181 6.04543 22.1731 6.01276 22.1743 6.0186C21.9625 4.99714 21.3349 4.45891 20.2509 4.16124C19.0535 3.83246 17.4885 3.88961 16.0862 4.16595C13.5454 4.66666 11.9998 5.82371 10.993 7.33748C9.93679 8.9256 9.3812 11.0516 9.18119 13.5732C8.98227 16.0809 9.14616 18.8048 9.38744 21.4863C9.62187 24.0917 9.94425 26.7724 9.99735 28.9058L5.90607 29C5.85704 27.0298 5.5618 24.6213 5.31024 21.8256C5.06553 19.1059 4.87508 16.1169 5.1006 13.2738C5.32503 10.4444 5.97266 7.58146 7.54557 5.21648C9.16794 2.77715 11.6775 1.01691 15.2648 0.309976Z" fill="#1E1E1E"/>
<path d="M5 26.5C5 27.8807 3.88071 29 2.5 29C1.11929 29 0 27.8807 0 26.5C0 25.1193 1.11929 24 2.5 24C3.88071 24 5 25.1193 5 26.5Z" fill="#1E1E1E"/>
<path d="M33 11C33 12.6569 31.6569 14 30 14C28.3431 14 27 12.6569 27 11C27 9.34315 28.3431 8 30 8C31.6569 8 33 9.34315 33 11Z" fill="#1E1E1E"/>
</svg>
