<?xml version="1.0" encoding="UTF-8" standalone="no"?>
<!DOCTYPE svg PUBLIC "-//W3C//DTD SVG 1.1//EN" "http://www.w3.org/Graphics/SVG/1.1/DTD/svg11.dtd">
<svg width="100%" height="100%" viewBox="0 0 1764 934" version="1.1" xmlns="http://www.w3.org/2000/svg" xmlns:xlink="http://www.w3.org/1999/xlink" xml:space="preserve" xmlns:serif="http://www.serif.com/" style="fill-rule:evenodd;clip-rule:evenodd;stroke-linecap:square;stroke-linejoin:round;stroke-miterlimit:1.5;">
    <g transform="matrix(1,0,0,1,-8247.71,-22915.4)">
        <g transform="matrix(1.92656,0,0,2.75239,4565.69,21235)">
            <g transform="matrix(0.987735,0,0,0.691374,944.08,-2007.47)">
                <path d="M1086.87,3988C1177.4,3988 1028.96,3810.43 1147.84,3810.43C1180.87,3810.43 1200.63,3840 1200.63,3868.08C1200.63,3926.56 1118.78,3932.38 1086.87,3919.72C1054.96,3907.07 1064.44,3869.3 1098.77,3869.3C1155.5,3869.3 1163.48,3988 1216.63,3988C1254.79,3988 1270.64,3968.48 1295.41,3939.46C1334.69,3893.42 1277.89,3856.04 1246.52,3883.4C1207.72,3917.24 1240.09,3988 1303.55,3988C1403.01,3988 1433.84,3875.21 1385.1,3875.21C1326.54,3875.21 1320.74,3987.98 1385.69,3987.98C1470.58,3987.98 1403.2,3875.21 1444.03,3875.21C1479.12,3875.21 1405.88,3988 1480.05,3988C1574.57,3988 1594.61,3875.21 1545.87,3875.21C1487.31,3875.21 1481.51,3987.98 1546.46,3987.98C1652.22,3987.98 1555.4,3799.83 1608.48,3799.83C1654.09,3799.83 1579.01,3988 1640.82,3988C1683.94,3988 1638.05,3899.39 1664.25,3899.39C1703.23,3899.39 1646.53,3988 1701.83,3988C1752.31,3988 1705.35,3899.42 1740.6,3899.42C1775.85,3899.42 1797.43,4074.44 1701.83,4074.44C1639.7,4074.44 1547.7,3987.17 1546.46,4036.11C1544.46,4114.56 1021.32,3878.29 1021.32,4178.48C1021.32,4205.94 1021.32,4167.81 1021.32,4254.86C1021.32,4295.34 940.286,4186.4 1048.95,4171.92C1177.36,4154.81 1146.96,4263.14 1089.19,4263.14C1037.27,4263.14 1018.07,4171.92 1133.3,4171.92C1207.47,4171.92 1198.21,4262.61 1252.42,4262.61C1342.95,4262.61 1194.51,4085.04 1313.39,4085.04C1346.42,4085.04 1366.18,4114.61 1366.18,4142.69C1366.18,4201.17 1284.33,4206.99 1252.42,4194.34C1220.51,4181.69 1230,4143.91 1264.32,4143.91C1321.05,4143.91 1329.03,4262.61 1382.18,4262.61C1435.32,4262.61 1449.14,4133.84 1420.55,4133.84C1391.96,4133.84 1400.35,4262.61 1452.18,4262.61C1546.69,4262.61 1566.74,4149.82 1517.99,4149.82C1459.44,4149.82 1453.64,4262.59 1518.58,4262.59C1624.35,4262.59 1527.53,4074.44 1580.61,4074.44C1626.21,4074.44 1544.03,4262.61 1618.2,4262.61C1645.98,4262.61 1666.61,4243.09 1691.38,4214.07C1730.67,4168.03 1673.87,4130.66 1642.5,4158.02C1603.7,4191.85 1630.81,4262.61 1694.27,4262.61C1786.46,4262.61 1796.34,4205.95 1787.88,4162.34C1779.84,4120.9 1798.56,4096.79 1840.01,4093.14C1872.9,4090.25 1892.79,4122.71 1892.79,4150.8C1892.79,4209.27 1825.9,4221.77 1820.33,4187.9C1815.91,4161.01 1856.72,4163.04 1851.72,4187.9C1847.21,4210.32 1817.69,4262.61 1851.72,4262.61" style="fill:none;stroke:black;stroke-width:18.61px;"/>
            </g>
        </g>
    </g>
</svg>
