<svg xmlns="http://www.w3.org/2000/svg" fill="currentColor" width="32" height="32" viewBox="0 0 24 24" class="text-profileTitleText"><title>YouTube</title><path fill-rule="evenodd" clip-rule="evenodd" d="M19.8142 5.41679C20.6763 5.64906 21.3541 6.32675 21.5832 7.18581C22 8.74483 22 11.9997 22 11.9997C22 11.9997 22 15.2545 21.5832 16.8136C21.3509 17.6757 20.6733 18.3535 19.8142 18.5825C18.2551 18.9993 12 18.9993 12 18.9993C12 18.9993 5.74801 18.9993 4.18581 18.5825C3.32358 18.3502 2.64588 17.6726 2.4168 16.8136C2 15.2545 2 11.9997 2 11.9997C2 11.9997 2 8.74483 2.4168 7.18581C2.64907 6.32358 3.32676 5.64588 4.18581 5.41679C5.74801 5 12 5 12 5C12 5 18.2551 5 19.8142 5.41679ZM15.1961 11.9992L10.0004 14.9994V8.99883L15.1961 11.9992Z"/></svg>